<!DOCTYPE svg PUBLIC "-//W3C//DTD SVG 1.1//EN" "http://www.w3.org/Graphics/SVG/1.1/DTD/svg11.dtd">
<!-- Uploaded to: SVG Repo, www.svgrepo.com, Transformed by: SVG Repo Mixer Tools -->
<svg fill="#314181" height="800px" width="800px" version="1.1" id="Layer_1" xmlns="http://www.w3.org/2000/svg" xmlns:xlink="http://www.w3.org/1999/xlink" viewBox="0 0 512 512" xml:space="preserve" stroke="#314181">
<g id="SVGRepo_bgCarrier" stroke-width="0"/>
<g id="SVGRepo_tracerCarrier" stroke-linecap="round" stroke-linejoin="round"/>
<g id="SVGRepo_iconCarrier"> <g> <g> <g> <path d="M458.667,106.645h-64c-5.888,0-10.667,4.779-10.667,10.667s4.779,10.667,10.667,10.667h64c17.643,0,32,14.357,32,32v192 c0,17.643-14.357,32-32,32H416c-5.888,0-10.667,4.779-10.667,10.667v42.667l-68.267-51.2c-1.835-1.387-4.096-2.133-6.4-2.133 h-128c-6.613,0-13.035-2.091-18.581-6.059c-4.736-3.435-11.435-2.347-14.869,2.453c-3.435,4.8-2.347,11.456,2.453,14.891 c9.173,6.592,19.883,10.069,30.997,10.069h124.437L409.6,467.2c1.877,1.408,4.139,2.133,6.4,2.133 c1.621,0,3.264-0.384,4.779-1.152c3.605-1.813,5.888-5.504,5.888-9.536v-53.333h32c29.419,0,53.333-23.936,53.333-53.333v-192 C512,130.581,488.085,106.645,458.667,106.645z"/> <path d="M309.333,341.333c29.419,0,53.333-23.936,53.333-53.333V96c0-29.397-23.915-53.333-53.333-53.333h-256 C23.915,42.667,0,66.603,0,96v192c0,29.397,23.915,53.333,53.333,53.333h32v53.333c0,4.032,2.283,7.723,5.888,9.536 c1.515,0.747,3.157,1.131,4.779,1.131c2.261,0,4.523-0.725,6.4-2.133l82.496-61.867H309.333z M174.933,322.133l-68.267,51.2 v-42.667c0-5.888-4.779-10.667-10.667-10.667H53.333c-17.643,0-32-14.357-32-32V96c0-17.643,14.357-32,32-32h256 c17.643,0,32,14.357,32,32v192c0,17.643-14.357,32-32,32h-128C179.008,320,176.768,320.747,174.933,322.133z"/> </g> </g> </g> </g>
</svg>